<svg width="24" height="24" viewBox="0 0 24 24" fill="none" xmlns="http://www.w3.org/2000/svg">
<path d="M15.751 15.998C15.8503 15.9967 15.9488 16.0152 16.041 16.0522C16.1332 16.0893 16.2173 16.1441 16.2881 16.2139C16.3588 16.2836 16.4153 16.3668 16.4536 16.4585C16.492 16.5502 16.5117 16.6487 16.5117 16.748C16.5117 16.8474 16.492 16.9459 16.4536 17.0376C16.4153 17.1293 16.3589 17.2124 16.2881 17.2822C16.2173 17.352 16.1332 17.4073 16.041 17.4443C15.9489 17.4813 15.8503 17.4994 15.751 17.498H8.25098C8.15159 17.4995 8.05268 17.4814 7.96045 17.4443C7.86829 17.4073 7.78461 17.352 7.71387 17.2822C7.64309 17.2124 7.5867 17.1293 7.54834 17.0376C7.50998 16.9459 7.49023 16.8474 7.49023 16.748C7.49024 16.6487 7.50999 16.5502 7.54834 16.4585C7.5867 16.3668 7.64312 16.2836 7.71387 16.2139C7.78456 16.1442 7.86837 16.0893 7.96045 16.0522C8.05268 16.0152 8.15159 15.9966 8.25098 15.998H15.751Z" fill="black" fill-opacity="0.9"/>
<path fill-rule="evenodd" clip-rule="evenodd" d="M12 6.25C14.3472 6.25 16.25 8.15279 16.25 10.5C16.25 12.8472 14.3472 14.75 12 14.75C9.65279 14.75 7.75 12.8472 7.75 10.5C7.75 8.15279 9.65279 6.25 12 6.25ZM12 7.75C10.4812 7.75 9.25 8.98122 9.25 10.5C9.25 12.0188 10.4812 13.25 12 13.25C13.5188 13.25 14.75 12.0188 14.75 10.5C14.75 8.98122 13.5188 7.75 12 7.75Z" fill="black" fill-opacity="0.9"/>
<path fill-rule="evenodd" clip-rule="evenodd" d="M15.7002 2.75C16.5278 2.75 17.1936 2.74952 17.7314 2.79346C18.2781 2.83812 18.7584 2.93235 19.2026 3.15869L19.333 3.22852C19.9788 3.59034 20.5042 4.13585 20.8413 4.79736L20.9199 4.96582C21.0903 5.36282 21.1675 5.7902 21.2065 6.26855C21.2505 6.80639 21.25 7.4722 21.25 8.2998V15.7002C21.25 16.5278 21.2505 17.1936 21.2065 17.7314C21.1675 18.2098 21.0903 18.6372 20.9199 19.0342L20.8413 19.2026C20.5042 19.8642 19.9788 20.4097 19.333 20.7715L19.2026 20.8413C18.7584 21.0676 18.2781 21.1619 17.7314 21.2065C17.1936 21.2505 16.5278 21.25 15.7002 21.25H8.2998C7.4722 21.25 6.80639 21.2505 6.26855 21.2065C5.7902 21.1675 5.36282 21.0903 4.96582 20.9199L4.79736 20.8413C4.13585 20.5042 3.59034 19.9788 3.22852 19.333L3.15869 19.2026C2.93235 18.7584 2.83812 18.2781 2.79346 17.7314C2.74952 17.1936 2.75 16.5278 2.75 15.7002V8.2998C2.75 7.4722 2.74952 6.80639 2.79346 6.26855C2.83812 5.72192 2.93235 5.24158 3.15869 4.79736C3.5182 4.09185 4.09185 3.5182 4.79736 3.15869C5.24158 2.93235 5.72192 2.83812 6.26855 2.79346C6.80639 2.74952 7.4722 2.75 8.2998 2.75H15.7002ZM8.2998 4.25C7.44745 4.25 6.85322 4.25078 6.39063 4.28857C5.93683 4.32566 5.67602 4.39449 5.47852 4.49512C5.05515 4.71083 4.71083 5.05515 4.49512 5.47852C4.39449 5.67602 4.32566 5.93683 4.28857 6.39063C4.25078 6.85322 4.25 7.44745 4.25 8.2998V15.7002C4.25 16.5525 4.25078 17.1468 4.28857 17.6094C4.32566 18.0632 4.3945 18.324 4.49512 18.5215L4.58203 18.6763C4.79822 19.0288 5.10803 19.3161 5.47852 19.5049L5.55566 19.541C5.74411 19.6222 5.99344 19.679 6.39063 19.7114C6.85322 19.7492 7.44745 19.75 8.2998 19.75H15.7002C16.5525 19.75 17.1468 19.7492 17.6094 19.7114C18.0632 19.6743 18.324 19.6055 18.5215 19.5049L18.6763 19.418C19.0288 19.2018 19.3161 18.892 19.5049 18.5215L19.541 18.4443C19.6222 18.2559 19.679 18.0066 19.7114 17.6094C19.7492 17.1468 19.75 16.5525 19.75 15.7002V8.2998C19.75 7.44745 19.7492 6.85322 19.7114 6.39063C19.679 5.99344 19.6222 5.74411 19.541 5.55566L19.5049 5.47852C19.3161 5.10803 19.0288 4.79822 18.6763 4.58203L18.5215 4.49512C18.324 4.3945 18.0632 4.32566 17.6094 4.28857C17.1468 4.25078 16.5525 4.25 15.7002 4.25H8.2998Z" fill="black" fill-opacity="0.9"/>
</svg>
