<svg width="24" height="24" viewBox="0 0 24 24" fill="none" xmlns="http://www.w3.org/2000/svg">
<path d="M5.75 3C4.24011 3 3 4.24011 3 5.75V18.25C3 19.7599 4.24011 21 5.75 21H18.25C19.7599 21 21 19.7599 21 18.25V5.75C21 4.24011 19.7599 3 18.25 3H5.75ZM5.75 4.5H18.25C18.9491 4.5 19.5 5.05089 19.5 5.75V15.9775L16.4941 13.0693C16.4938 13.069 16.4935 13.0687 16.4932 13.0684C16.1041 12.6927 15.5934 12.5 15.0869 12.5C14.5806 12.5 14.0699 12.6927 13.6807 13.0693L12.6562 14.0605L9.56641 11.0713C9.17818 10.6949 8.66804 10.5 8.15918 10.5C7.64954 10.5 7.14049 10.6961 6.75293 11.0703C6.7526 11.0706 6.75228 11.071 6.75195 11.0713L4.5 13.25V5.75C4.5 5.05089 5.05089 4.5 5.75 4.5ZM15.25 6.5C14.5625 6.5 13.9519 6.78482 13.5645 7.2207C13.177 7.65659 13 8.20833 13 8.75C13 9.29167 13.177 9.84341 13.5645 10.2793C13.9519 10.7152 14.5625 11 15.25 11C15.9375 11 16.5481 10.7152 16.9355 10.2793C17.323 9.84341 17.5 9.29167 17.5 8.75C17.5 8.20833 17.323 7.65659 16.9355 7.2207C16.5481 6.78482 15.9375 6.5 15.25 6.5ZM15.25 8C15.5625 8 15.7019 8.09018 15.8145 8.2168C15.927 8.34341 16 8.54167 16 8.75C16 8.95833 15.927 9.15659 15.8145 9.2832C15.7019 9.40982 15.5625 9.5 15.25 9.5C14.9375 9.5 14.7981 9.40982 14.6855 9.2832C14.573 9.15659 14.5 8.95833 14.5 8.75C14.5 8.54167 14.573 8.34341 14.6855 8.2168C14.7981 8.09018 14.9375 8 15.25 8ZM8.15918 12C8.28932 12 8.41766 12.0468 8.52246 12.1484C8.52279 12.1488 8.52311 12.1491 8.52344 12.1494L11.5771 15.1035L7.03223 19.5H5.75C5.05089 19.5 4.5 18.9491 4.5 18.25V15.3369L7.79492 12.1494C7.90138 12.0466 8.02982 12 8.15918 12ZM15.0869 14C15.2194 14 15.3462 14.0461 15.4512 14.1475L19.5 18.0645V18.25C19.5 18.9491 18.9491 19.5 18.25 19.5H9.19043L14.7236 14.1475C14.8274 14.0471 14.9552 14 15.0869 14Z" fill="black" fill-opacity="0.9"/>
</svg>
